<?xml version="1.0" encoding="utf-8"?>
<!-- Generator: Adobe Illustrator 21.0.0, SVG Export Plug-In . SVG Version: 6.00 Build 0)  -->
<svg version="1.1" id="圖層_1" xmlns="http://www.w3.org/2000/svg" xmlns:xlink="http://www.w3.org/1999/xlink" x="0px" y="0px"
	 viewBox="0 0 46 46" style="enable-background:new 0 0 46 46;" xml:space="preserve">
<style type="text/css">
	.st0{fill:#2D4A91;}
	.st1{fill:#FFFFFF;}
</style>
<title>but</title>
<circle class="st0" cx="23" cy="23" r="23"/>
<g>
	<path class="st1" d="M35.8,29.8L35.8,29.8c-1,1.1-2.7,1.1-3.8,0.1L20.9,19.3c-1.1-1-1.1-2.7-0.1-3.7l0,0c1-1.1,2.7-1.1,3.7-0.1
		l11.2,10.6C36.8,27.1,36.8,28.8,35.8,29.8z"/>
	<path class="st1" d="M10.2,30.5L10.2,30.5c-1.1-1-1.1-2.7-0.1-3.8l10.6-11.2c1-1.1,2.7-1.1,3.7-0.1l0,0c1.1,1,1.1,2.7,0.1,3.7
		L14,30.4C13,31.5,11.3,31.5,10.2,30.5z"/>
</g>
</svg>
