<svg xmlns="http://www.w3.org/2000/svg" viewBox="0 0 56.69 56.69"><defs><style>.cls-1{fill:#f6a288;}.cls-2,.cls-4{fill:none;stroke:#2d4a91;stroke-miterlimit:10;}.cls-2{stroke-width:2px;}.cls-3{fill:#112046;}.cls-4{stroke-width:1.24px;}</style></defs><title>skill</title><g id="圖層_3" data-name="圖層 3"><circle class="cls-1" cx="39.64" cy="28.86" r="17.05"/><rect class="cls-2" x="8.19" y="5.14" width="36" height="37.59" rx="10.56" ry="10.56"/><path class="cls-3" d="M13.14,46l-2.55-2.54-3.54-.68L6.11,39.3,3.39,36.94l.92-3.48-1.17-3.4,2.54-2.55L6.35,24,9.83,23l2.35-2.72,3.48.92,3.4-1.18,2.55,2.54,3.54.68.94,3.47,2.72,2.35-.92,3.48L29.07,36l-2.54,2.55-.68,3.54L22.37,43,20,45.73l-3.48-.92ZM12,37.41l2.74,1.45,3.09-.12,2.62-1.65,1.45-2.74-.12-3.09-1.65-2.62-2.74-1.45-3.09.12L11.72,29l-1.45,2.74.12,3.09Z"/><path class="cls-4" d="M25,35A9.09,9.09,0,1,0,8.5,38l-7,7.87,6.14-.27,1.4,4.2,3.74-8.31a9.12,9.12,0,0,0,1.27.4l.4.07-.25,9.59,3.08-3.17,5.42,2.91-2.84-10A9.07,9.07,0,0,0,25,35Z"/></g></svg>