<svg xmlns="http://www.w3.org/2000/svg" viewBox="0 0 56.69 56.69"><defs><style>.cls-1{fill:#f6a288;}.cls-2{fill:none;stroke:#2d4a91;stroke-miterlimit:10;stroke-width:1.95px;}.cls-3{fill:#2d4a91;}</style></defs><title>skill</title><g id="圖層_3" data-name="圖層 3"><circle class="cls-1" cx="37.97" cy="31.18" r="18.55"/><path class="cls-2" d="M16.14,6.66s8.34.05,11.6,4.41"/><path class="cls-2" d="M4.3,45s8.34.05,11.6,4.41"/><path class="cls-3" d="M4.2,51.64l.15.15c.85.71,1.51,4,2.62,4.4s3.12-1.91,4.54-2.54A23.66,23.66,0,0,0,4.2,51.64Z"/><path class="cls-2" d="M10.91,53.07l.27-.1a7.14,7.14,0,0,0,5.12-4.82L27.75,11.07a7.12,7.12,0,1,0-13.61-4.2L2.69,44a7.14,7.14,0,0,0,2.1,7.43A19.77,19.77,0,0,1,10.91,53.07Z"/><line class="cls-2" x1="21.14" y1="9.03" x2="10.21" y2="44.43"/><line class="cls-2" x1="24.62" y1="11.62" x2="14.21" y2="45.39"/><line class="cls-2" x1="16.76" y1="9.34" x2="6.34" y2="43.1"/></g></svg>